REM DIRINDEX 1\2,1\3,1\4
REM DIRNAME folder01,folder02,folder03,folder04
TITLE ""
FILE "067 067_Lesson 5_TOEFL_3900.mp3" MP3
  TRACK 01 AUDIO
    TITLE "4:cjc151_2896"
    INDEX 01 00:00:00
  TRACK 02 AUDIO
    TITLE "0:"
    INDEX 01 00:01:44
  TRACK 03 AUDIO
    TITLE "2:cjc151_2897"
    INDEX 01 00:02:45
  TRACK 04 AUDIO
    TITLE "0:"
    INDEX 01 00:03:39
  TRACK 05 AUDIO
    TITLE "3:cjc151_2898"
    INDEX 01 00:05:16
  TRACK 06 AUDIO
    TITLE "0:"
    INDEX 01 00:08:34
  TRACK 07 AUDIO
    TITLE "2:cjc151_2899"
    INDEX 01 00:10:12
  TRACK 08 AUDIO
    TITLE "0:"
    INDEX 01 00:11:13
  TRACK 09 AUDIO
    TITLE "3:cjc151_2900"
    INDEX 01 00:12:65
  TRACK 10 AUDIO
    TITLE "0:"
    INDEX 01 00:16:26
  TRACK 11 AUDIO
    TITLE "2:cjc151_2901"
    INDEX 01 00:18:05
  TRACK 12 AUDIO
    TITLE "0:"
    INDEX 01 00:19:16
  TRACK 13 AUDIO
    TITLE "3:cjc151_2902"
    INDEX 01 00:20:69
  TRACK 14 AUDIO
    TITLE "0:"
    INDEX 01 00:26:26
  TRACK 15 AUDIO
    TITLE "2:cjc151_2903"
    INDEX 01 00:28:04
  TRACK 16 AUDIO
    TITLE "0:"
    INDEX 01 00:29:05
  TRACK 17 AUDIO
    TITLE "3:cjc151_2904"
    INDEX 01 00:30:59
  TRACK 18 AUDIO
    TITLE "0:"
    INDEX 01 00:34:69
  TRACK 19 AUDIO
    TITLE "2:cjc151_2905"
    INDEX 01 00:36:50
  TRACK 20 AUDIO
    TITLE "0:"
    INDEX 01 00:37:61
  TRACK 21 AUDIO
    TITLE "3:cjc151_2906"
    INDEX 01 00:39:39
  TRACK 22 AUDIO
    TITLE "0:"
    INDEX 01 00:43:33
  TRACK 23 AUDIO
    TITLE "2:cjc151_2907"
    INDEX 01 00:45:12
  TRACK 24 AUDIO
    TITLE "0:"
    INDEX 01 00:46:17
  TRACK 25 AUDIO
    TITLE "3:cjc151_2908"
    INDEX 01 00:47:68
  TRACK 26 AUDIO
    TITLE "0:"
    INDEX 01 00:51:38
  TRACK 27 AUDIO
    TITLE "2:cjc151_2909"
    INDEX 01 00:53:17
  TRACK 28 AUDIO
    TITLE "0:"
    INDEX 01 00:54:30
  TRACK 29 AUDIO
    TITLE "3:cjc151_2910"
    INDEX 01 00:56:10
  TRACK 30 AUDIO
    TITLE "0:"
    INDEX 01 01:00:29
  TRACK 31 AUDIO
    TITLE "2:cjc151_2911"
    INDEX 01 01:02:08
  TRACK 32 AUDIO
    TITLE "0:"
    INDEX 01 01:03:29
  TRACK 33 AUDIO
    TITLE "3:cjc151_2912"
    INDEX 01 01:05:07
  TRACK 34 AUDIO
    TITLE "0:"
    INDEX 01 01:08:48
  TRACK 35 AUDIO
    TITLE "2:cjc151_2913"
    INDEX 01 01:10:30
  TRACK 36 AUDIO
    TITLE "0:"
    INDEX 01 01:11:23
  TRACK 37 AUDIO
    TITLE "3:cjc151_2914"
    INDEX 01 01:13:02
  TRACK 38 AUDIO
    TITLE "0:"
    INDEX 01 01:17:73
  TRACK 39 AUDIO
    TITLE "2:cjc151_2915"
    INDEX 01 01:19:52
  TRACK 40 AUDIO
    TITLE "0:"
    INDEX 01 01:21:57
  TRACK 41 AUDIO
    TITLE "3:cjc151_2916"
    INDEX 01 01:23:44
  TRACK 42 AUDIO
    TITLE "0:"
    INDEX 01 01:28:10
  TRACK 43 AUDIO
    TITLE "2:cjc151_2917"
    INDEX 01 01:29:64
  TRACK 44 AUDIO
    TITLE "0:"
    INDEX 01 01:31:02
  TRACK 45 AUDIO
    TITLE "3:cjc151_2918"
    INDEX 01 01:32:55
  TRACK 46 AUDIO
    TITLE "0:"
    INDEX 01 01:36:72
  TRACK 47 AUDIO
    TITLE "2:cjc151_2919"
    INDEX 01 01:38:49
  TRACK 48 AUDIO
    TITLE "0:"
    INDEX 01 01:39:51
  TRACK 49 AUDIO
    TITLE "3:cjc151_2920"
    INDEX 01 01:41:30
  TRACK 50 AUDIO
    TITLE "0:"
    INDEX 01 01:45:02
  TRACK 51 AUDIO
    TITLE "2:cjc151_2921"
    INDEX 01 01:46:57
  TRACK 52 AUDIO
    TITLE "0:"
    INDEX 01 01:48:07
  TRACK 53 AUDIO
    TITLE "3:cjc151_2922"
    INDEX 01 01:49:59
  TRACK 54 AUDIO
    TITLE "0:"
    INDEX 01 01:53:08
  TRACK 55 AUDIO
    TITLE "2:cjc151_2923"
    INDEX 01 01:54:62
  TRACK 56 AUDIO
    TITLE "0:"
    INDEX 01 01:56:04
  TRACK 57 AUDIO
    TITLE "3:cjc151_2924"
    INDEX 01 01:57:57
  TRACK 58 AUDIO
    TITLE "0:"
    INDEX 01 02:01:54
  TRACK 59 AUDIO
    TITLE "2:cjc151_2925"
    INDEX 01 02:03:34
  TRACK 60 AUDIO
    TITLE "0:"
    INDEX 01 02:04:66
  TRACK 61 AUDIO
    TITLE "3:cjc151_2926"
    INDEX 01 02:06:44
  TRACK 62 AUDIO
    TITLE "0:"
    INDEX 01 02:09:73
  TRACK 63 AUDIO
    TITLE "2:cjc151_2927"
    INDEX 01 02:11:55
  TRACK 64 AUDIO
    TITLE "0:"
    INDEX 01 02:12:56
  TRACK 65 AUDIO
    TITLE "3:cjc151_2928"
    INDEX 01 02:14:33
  TRACK 66 AUDIO
    TITLE "0:"
    INDEX 01 02:18:06
  TRACK 67 AUDIO
    TITLE "2:cjc151_2929"
    INDEX 01 02:19:58
  TRACK 68 AUDIO
    TITLE "0:"
    INDEX 01 02:20:65
  TRACK 69 AUDIO
    TITLE "3:cjc151_2930"
    INDEX 01 02:22:56
  TRACK 70 AUDIO
    TITLE "0:"
    INDEX 01 02:27:42
  TRACK 71 AUDIO
    TITLE "2:cjc151_2931"
    INDEX 01 02:29:21
  TRACK 72 AUDIO
    TITLE "0:"
    INDEX 01 02:30:34
  TRACK 73 AUDIO
    TITLE "3:cjc151_2932"
    INDEX 01 02:32:12
  TRACK 74 AUDIO
    TITLE "0:"
    INDEX 01 02:35:26
  TRACK 75 AUDIO
    TITLE "2:cjc151_2933"
    INDEX 01 02:37:03
  TRACK 76 AUDIO
    TITLE "0:"
    INDEX 01 02:38:06
  TRACK 77 AUDIO
    TITLE "3:cjc151_2934"
    INDEX 01 02:39:57
  TRACK 78 AUDIO
    TITLE "0:"
    INDEX 01 02:43:41
  TRACK 79 AUDIO
    TITLE "2:cjc151_2935"
    INDEX 01 02:45:22
  TRACK 80 AUDIO
    TITLE "0:"
    INDEX 01 02:46:12
  TRACK 81 AUDIO
    TITLE "3:cjc151_2936"
    INDEX 01 02:47:68
  TRACK 82 AUDIO
    TITLE "0:"
    INDEX 01 02:50:25
  TRACK 83 AUDIO
    TITLE "2:cjc151_2937"
    INDEX 01 02:52:18
  TRACK 84 AUDIO
    TITLE "0:"
    INDEX 01 02:53:16
  TRACK 85 AUDIO
    TITLE "3:cjc151_2938"
    INDEX 01 02:54:70
  TRACK 86 AUDIO
    TITLE "0:"
    INDEX 01 02:58:41
  TRACK 87 AUDIO
    TITLE "2:cjc151_2939"
    INDEX 01 03:00:16
  TRACK 88 AUDIO
    TITLE "0:"
    INDEX 01 03:01:23
  TRACK 89 AUDIO
    TITLE "3:cjc151_2940"
    INDEX 01 03:03:03
  TRACK 90 AUDIO
    TITLE "0:"
    INDEX 01 03:07:00
